<?xml version="1.0" encoding="UTF-8"?>
<svg version="1.1" xmlns="http://www.w3.org/2000/svg" width="3593" height="3201">
<path d="M0 0 C27.08157131 22.63037603 32.73669463 63.67665566 35.82299805 96.58618164 C37.13067796 112.10089397 37.30850333 127.55948418 37.29296875 143.125 C37.29203217 144.34212677 37.29109558 145.55925354 37.29013062 146.81326294 C37.25510762 167.92212377 36.73388195 188.89178128 35.10546875 209.9375 C34.99235352 211.4059436 34.99235352 211.4059436 34.87695312 212.90405273 C27.40737815 308.88062165 12.61920296 404.15775512 -16.48071289 571.80200195 C-20.58742095 594.43314251 -24.06137779 617.11066327 -26.89453125 639.9375 C-27.03245087 641.02789581 -27.03245087 641.02789581 -27.17315674 642.14031982 C-29.51059098 660.68734065 -30.18657011 679.06991725 -30.26953125 697.75 C-30.27756775 698.75807709 -30.28560425 699.76615417 -30.29388428 700.80477905 C-30.42706177 722.74924637 -29.83040754 749.28872003 -14.89453125 766.9375 C-8.35246499 772.60044043 -1.51041187 775.49266014 7.16796875 775.234375 C33.70088188 772.55285718 56.43945857 753.46360133 76.10546875 736.9375 C76.70069336 736.44137207 77.29591797 735.94524414 77.90917969 735.43408203 C93.34338614 722.5521579 107.69392074 708.51908783 121.8815918 694.29174805 C124.19399598 691.97391162 126.51179773 689.66156696 128.83007812 687.34960938 C130.32974832 685.84927936 131.82910881 684.3486397 133.328125 682.84765625 C134.00738541 682.17042007 134.68664581 681.4931839 135.38648987 680.79542542 C139.29558046 676.86733552 143.02253398 672.83297768 146.63401794 668.62913513 C148.9212847 665.99960733 151.41304249 663.60604949 153.91796875 661.1875 C155.82068191 659.2304236 157.61319879 657.23164693 159.40234375 655.171875 C162.95568826 651.08117701 166.63341625 647.12444596 170.35546875 643.1875 C175.75783779 637.44935663 181.11806789 631.67814591 186.43359375 625.859375 C189.2942453 622.73106015 192.16656625 619.6138228 195.04296875 616.5 C195.54207764 615.95964111 196.04118652 615.41928223 196.55541992 614.86254883 C197.56667487 613.76785108 198.57798687 612.67320604 199.58935547 611.57861328 C201.59593534 609.40659558 203.60160567 607.23373927 205.60717773 605.06079102 C206.60791033 603.97656892 207.60872444 602.89242206 208.60961914 601.80834961 C211.08608201 599.12601745 213.56162147 596.44284524 216.03515625 593.7578125 C223.10032621 586.09115152 230.20423617 578.46140203 237.32324219 570.84472656 C239.66970268 568.3336924 242.01461278 565.82121366 244.359375 563.30859375 C246.11049116 561.43211805 247.86188654 559.55590321 249.61328125 557.6796875 C251.92154799 555.20663652 254.22876424 552.73261191 256.53515625 550.2578125 C260.05532401 546.48131457 263.57914941 542.70825424 267.10546875 538.9375 C268.10876221 537.86435547 268.10876221 537.86435547 269.13232422 536.76953125 C283.7784504 521.1160357 283.7784504 521.1160357 290.015625 515.08984375 C291.86474239 513.18542566 293.58953812 511.23359018 295.3203125 509.22265625 C299.87759578 503.97610738 304.8338923 499.15949548 309.7890625 494.29296875 C310.85833984 493.23529297 310.85833984 493.23529297 311.94921875 492.15625 C312.58021484 491.53685547 313.21121094 490.91746094 313.86132812 490.27929688 C315.71839628 488.34141635 317.46427896 486.36995658 319.21058655 484.33436584 C323.18311179 479.78500152 327.3927091 475.50957428 331.66772461 471.24584961 C332.90819298 470.00275276 332.90819298 470.00275276 334.17372131 468.73454285 C336.88675528 466.01713581 339.60339752 463.30337006 342.3203125 460.58984375 C344.21943028 458.69005162 346.11839983 456.79011224 348.01722717 454.89002991 C351.98877537 450.91666892 355.96241227 446.94540597 359.93725586 442.9753418 C364.51467522 438.40336333 369.08848135 433.82779391 373.66042799 429.25034326 C377.60530787 425.30090678 381.5521564 421.35344559 385.50061899 417.40759093 C387.85035722 415.05940151 390.19923788 412.71036712 392.54673576 410.35993767 C395.16667713 407.73744247 397.78982748 405.11819842 400.41381836 402.49975586 C401.17822235 401.73332764 401.94262634 400.96689941 402.73019409 400.17724609 C406.80464283 396.11865554 410.96202461 392.22485221 415.3344965 388.48816776 C418.23568284 385.9478817 420.91200918 383.19419804 423.60546875 380.4375 C427.71890107 376.27189385 431.8829045 372.26879935 436.34765625 368.4765625 C438.18473899 366.8680945 439.89454662 365.17911132 441.60546875 363.4375 C443.86344818 361.14423964 446.16543379 358.97321972 448.60546875 356.875 C452.71057427 353.33915716 456.65542116 349.64414762 460.60546875 345.9375 C465.0848211 341.73773102 469.57402287 337.57054829 474.23046875 333.56640625 C476.49298056 331.60084911 478.70237558 329.58076691 480.91796875 327.5625 C484.38076957 324.43327173 487.91225878 321.43249651 491.54296875 318.5 C495.34634378 315.42413412 499.00629527 312.24996834 502.60546875 308.9375 C507.02187019 304.87766355 511.56710397 301.04426179 516.234375 297.27734375 C518.78322191 295.20012022 521.292932 293.08758909 523.79223633 290.95166016 C530.44779106 285.26460408 537.25585677 279.80753456 544.171875 274.44140625 C546.2277685 272.84237797 548.27635713 271.23429961 550.32421875 269.625 C682.42326139 166.01017842 682.42326139 166.01017842 755.11328125 174.328125 C768.48227163 176.54209793 781.07587096 182.82500551 791.10546875 191.9375 C792.22308594 192.91783203 792.22308594 192.91783203 793.36328125 193.91796875 C808.07936446 207.61140889 815.34447171 227.74979282 816.22216797 247.57324219 C818.70182872 322.11110416 779.37424955 397.33414861 742.65625 460.25048828 C740.38491306 464.18599431 738.19144511 468.16364598 735.99023438 472.13867188 C720.24290936 500.53978525 703.04804789 528.15374902 685.62255859 555.55078125 C684.00572361 558.09442123 682.39334966 560.64085655 680.78125 563.1875 C672.75966304 575.84552112 664.62903397 588.42868805 656.40557861 600.9564209 C654.96225519 603.1557257 653.51996038 605.3557035 652.07763672 607.55566406 C636.72573006 630.96403554 621.22127259 654.26251261 605.53955078 677.45117188 C604.65759033 678.75538086 604.65759033 678.75538086 603.7578125 680.0859375 C603.1798291 680.94058594 602.6018457 681.79523437 602.00634766 682.67578125 C596.61742861 690.64940271 591.27829569 698.65554574 585.95333862 706.67196655 C580.62270626 714.69470678 575.25297223 722.69004208 569.85546875 730.66796875 C568.89833984 732.08349533 568.89833984 732.08349533 567.921875 733.52761841 C564.76931275 738.18954699 561.61382676 742.84944548 558.453125 747.50585938 C551.69983762 757.47545551 545.13195651 767.53652392 538.74072266 777.74194336 C535.49851881 782.91842393 532.15332917 788.02469587 528.79296875 793.125 C506.51479352 827.17066578 485.61268759 862.22981365 466.10546875 897.9375 C465.26991455 899.46310547 465.26991455 899.46310547 464.41748047 901.01953125 C420.46965763 976.95643212 420.46965763 976.95643212 412.29296875 1061 C415.4095805 1070.3641975 419.12326535 1076.38788232 428.10546875 1080.9375 C454.9528372 1092.38579256 488.64197502 1078.66996729 513.82470703 1068.68725586 C535.58790893 1059.7973302 556.93442973 1049.59798527 577.43359375 1038.09375 C583.89615723 1034.46829437 590.44785601 1031.01454831 596.99835205 1027.55154419 C606.69178783 1022.42657137 616.37005726 1017.27951948 625.98046875 1012 C636.65711569 1006.13877207 647.42451306 1000.45252146 658.19604492 994.76831055 C664.76405341 991.30117451 671.32808034 987.828995 677.859375 984.29296875 C695.62128072 974.67761254 713.58853839 965.48879014 731.59056091 956.33258057 C732.59708206 955.82064148 733.60360321 955.30870239 734.640625 954.78125 C736.13874474 954.01938385 736.13874474 954.01938385 737.66712952 953.24212646 C743.32451844 950.36232505 748.97144782 947.46400582 754.6015625 944.53125 C788.32762281 926.97284807 822.45972296 910.08930915 857.06542969 894.33105469 C860.23630465 892.87752479 863.3945789 891.39916759 866.55078125 889.9140625 C943.28642761 853.84578174 1023.66680079 819.33507426 1107.23046875 803 C1107.96683563 802.8557962 1108.70320251 802.71159241 1109.46188354 802.5630188 C1148.53850573 794.99183733 1195.65746255 790.36214839 1231.10546875 812.5 C1247.19155038 823.74341307 1258.22010458 838.84777769 1262.35546875 858.25 C1268.62736384 898.1980165 1244.51134793 937.01589797 1222.10546875 967.9375 C1215.27841232 977.22552145 1208.16172866 986.23452094 1200.640625 994.96875 C1198.30059299 997.7090032 1196.04126408 1000.4969552 1193.79296875 1003.3125 C1189.04267895 1009.15441833 1183.9028979 1014.60116983 1178.73046875 1020.06640625 C1176.1023367 1022.84847271 1173.54509747 1025.68413197 1171.00415039 1028.54589844 C1166.1993012 1033.89073864 1161.18859054 1038.99904 1156.1015625 1044.07421875 C1155.17884048 1044.99789749 1154.25611847 1045.92157623 1153.30543518 1046.87324524 C1151.37003358 1048.81010576 1149.43287495 1050.7451859 1147.49438477 1052.67895508 C1145.03136946 1055.13625809 1142.57289505 1057.59804759 1140.1157217 1060.06119061 C1137.73844557 1062.4429811 1135.35733212 1064.8209202 1132.9765625 1067.19921875 C1132.10551376 1068.07229172 1131.23446503 1068.94536469 1130.33702087 1069.84489441 C1125.96894422 1074.19640677 1121.54781106 1078.41150302 1116.85023499 1082.40681458 C1115.01996897 1084.01250906 1113.30976192 1085.69936135 1111.60546875 1087.4375 C1108.66282551 1090.42643201 1105.58191168 1093.18402298 1102.40625 1095.921875 C1099.59773346 1098.38230715 1096.85103195 1100.90744278 1094.10546875 1103.4375 C1088.44693642 1108.64174226 1082.7008219 1113.72193794 1076.85546875 1118.71484375 C1075.64708927 1119.74734183 1074.43875725 1120.77989546 1073.23046875 1121.8125 C1072.31744995 1122.59222168 1072.31744995 1122.59222168 1071.38598633 1123.38769531 C1067.84884817 1126.41668656 1064.36137344 1129.48914023 1060.91796875 1132.625 C1056.75824666 1136.39918687 1052.45512726 1139.95536112 1048.08984375 1143.48828125 C1044.71785139 1146.25561006 1041.40890806 1149.0890737 1038.10546875 1151.9375 C1032.18449229 1157.03738944 1026.17505824 1162.01499067 1020.10546875 1166.9375 C1018.37572599 1168.3534632 1016.64657314 1169.7701473 1014.91796875 1171.1875 C1012.98090496 1172.77136697 1011.04335839 1174.35464358 1009.10546875 1175.9375 C1008.20586426 1176.67274902 1008.20586426 1176.67274902 1007.28808594 1177.42285156 C999.71266297 1183.61052719 992.10793839 1189.75203878 984.39746094 1195.77075195 C979.8992195 1199.29081044 975.46600405 1202.8860822 971.04296875 1206.5 C965.29373573 1211.19203652 959.481933 1215.77555768 953.58203125 1220.27734375 C949.40045262 1223.46816079 945.25450759 1226.70456133 941.10546875 1229.9375 C933.7925315 1235.63100805 926.46289238 1241.30153162 919.10546875 1246.9375 C918.48945801 1247.40945801 917.87344727 1247.88141602 917.23876953 1248.36767578 C912.98702733 1251.62408313 908.73202956 1254.87620581 904.47558594 1258.12646484 C901.98889513 1260.02657531 899.50421584 1261.9292983 897.01953125 1263.83203125 C887.83327476 1270.85832223 878.60343006 1277.81332576 869.2722168 1284.64599609 C863.30608523 1289.02500156 857.41685443 1293.49824201 851.54296875 1298 C844.39123171 1303.4774392 837.16825444 1308.83111695 829.84350586 1314.07446289 C824.20513749 1318.11877018 818.64569853 1322.25997086 813.10546875 1326.4375 C806.06901956 1331.74056679 798.97714669 1336.95435625 791.82202148 1342.09594727 C786.41077008 1345.98675047 781.03076355 1349.91768787 775.66796875 1353.875 C774.88099609 1354.45572266 774.09402344 1355.03644531 773.28320312 1355.63476562 C770.8901359 1357.4016828 768.49768217 1359.16942706 766.10546875 1360.9375 C756.06535635 1368.35809673 746.00749367 1375.74946039 735.87475586 1383.04321289 C730.42439938 1386.9714888 725.00863701 1390.94462036 719.60546875 1394.9375 C713.46530606 1399.47501011 707.30192214 1403.97716576 701.10546875 1408.4375 C692.51839458 1414.6207568 683.99755414 1420.89110662 675.48779297 1427.18017578 C673.13583825 1428.9150979 670.77962036 1430.64405144 668.421875 1432.37109375 C659.1878609 1439.14090727 650.03981133 1446.01138198 640.94848633 1452.97167969 C635.15208321 1457.40154691 629.30600335 1461.75536569 623.41796875 1466.0625 C614.84857176 1472.33661834 606.46130197 1478.8260068 598.10253906 1485.37695312 C595.2827327 1487.58040084 592.44514347 1489.75970435 589.60546875 1491.9375 C576.53904708 1501.97974357 563.56918446 1512.11581098 550.81103516 1522.54785156 C548.48428699 1524.44362176 546.14016568 1526.31713521 543.79296875 1528.1875 C535.49773904 1534.81264187 527.3292016 1541.56489741 519.29345703 1548.50170898 C515.82505058 1551.48889178 512.3101509 1554.39592909 508.73046875 1557.25 C503.21568445 1561.7190178 498.07724166 1566.55632133 492.93798828 1571.4465332 C491.97868408 1572.35858521 491.97868408 1572.35858521 491 1573.2890625 C490.44159424 1573.82354004 489.88318848 1574.35801758 489.30786133 1574.90869141 C487.342371 1576.71926946 485.34068365 1578.46905094 483.31933594 1580.21655273 C479.32028558 1583.70517745 475.53437324 1587.36345232 471.7890625 1591.12109375 C471.1289064 1591.78029312 470.46875031 1592.43949249 469.78858948 1593.1186676 C468.40511369 1594.50146835 467.02287792 1595.88551076 465.6418457 1597.27075195 C463.54815206 1599.36980343 461.44917001 1601.4634594 459.34960938 1603.55664062 C457.99577304 1604.91113786 456.642247 1606.26594531 455.2890625 1607.62109375 C454.67220078 1608.23593124 454.05533905 1608.85076874 453.41978455 1609.48423767 C449.11944701 1613.80738442 445.07184391 1618.30715488 441.10546875 1622.9375 C440.56858932 1623.56298233 440.0317099 1624.18846466 439.4785614 1624.832901 C416.80950606 1651.35435218 396.41167179 1681.75841221 399.10546875 1717.9375 C402.16799735 1734.19515185 413.29090307 1747.10976197 426.54467773 1756.32373047 C473.70404004 1787.97121153 539.43505401 1795.46452809 594.73046875 1801.625 C595.58513733 1801.72196167 596.43980591 1801.81892334 597.32037354 1801.91882324 C636.62106743 1806.31704454 676.23709893 1807.78193874 715.71929932 1809.58856201 C790.71343754 1813.02176807 790.71343754 1813.02176807 820.23046875 1817.25 C821.34494385 1817.40482346 821.34494385 1817.40482346 822.48193359 1817.56277466 C844.38697619 1820.62007531 866.03254659 1825.16507094 887.10546875 1831.9375 C887.97800293 1832.21787109 888.85053711 1832.49824219 889.74951172 1832.78710938 C918.38528134 1842.18540942 944.70317891 1856.7154048 967.10546875 1876.9375 C967.94722656 1877.659375 968.78898437 1878.38125 969.65625 1879.125 C991.58917625 1898.15452453 1014.47556481 1924.9565951 1017.10546875 1954.9375 C1018.48404339 1977.33093188 1009.27410144 1996.22846552 995.10546875 2012.9375 C994.43902344 2013.73929688 993.77257813 2014.54109375 993.0859375 2015.3671875 C978.73220728 2032.03775358 960.0632312 2044.12284147 941.10546875 2054.9375 C939.47738281 2055.86755859 939.47738281 2055.86755859 937.81640625 2056.81640625 C864.90560615 2096.95924907 781.12473536 2122.32746825 510.50946045 2165.78320312 C508.15448563 2165.93435392 505.80016139 2166.09350402 503.44580078 2166.25390625 C447.37757646 2169.99222703 389.8439692 2169.97548751 333.78930664 2166.12109375 C330.90093687 2165.92350855 328.01205128 2165.73494262 325.12304688 2165.546875 C265.03107948 2161.58555337 205.4845511 2153.85024512 146.10546875 2143.9375 C145.65300781 2144.83984375 145.20054688 2145.7421875 144.734375 2146.671875 C137.85700954 2160.12547095 129.95960817 2172.94953048 122.03662109 2185.80224609 C120.45475339 2188.37043132 118.88111258 2190.94324719 117.3125 2193.51953125 C99.55784484 2222.51300627 79.10736559 2249.93519114 57.54101562 2276.18603516 C56.26959664 2277.73725281 55.00716765 2279.29582934 53.74609375 2280.85546875 C44.21608687 2292.62885316 34.21196467 2303.9708563 23.86743164 2315.03198242 C22.51535978 2316.49421339 21.17570324 2317.96793246 19.84155273 2319.4465332 C12.6126023 2327.43182174 5.09822564 2335.0988568 -2.52954102 2342.70288086 C-4.59313186 2344.76107157 -6.651268 2346.8246098 -8.70898438 2348.88867188 C-10.04525215 2350.22427934 -11.38182982 2351.55957684 -12.71875 2352.89453125 C-13.32103928 2353.49884476 -13.92332855 2354.10315826 -14.54386902 2354.7257843 C-18.26419437 2358.42604742 -22.10479249 2361.93710299 -26.08056641 2365.36164856 C-28.8568051 2367.77345922 -31.52531835 2370.29680597 -34.20703125 2372.8125 C-39.10277543 2377.37139415 -44.14100765 2381.67747673 -49.359375 2385.8671875 C-51.70947911 2387.78637884 -53.9631331 2389.7710899 -56.20703125 2391.8125 C-61.00804546 2396.1274435 -66.07412202 2400.06463638 -71.16796875 2404.0234375 C-73.63210052 2405.94084406 -76.07340712 2407.88205923 -78.49609375 2409.8515625 C-88.03070713 2417.59939857 -97.87722409 2424.8279555 -107.89453125 2431.9375 C-109.35945976 2432.98295416 -110.82430476 2434.02852535 -112.2890625 2435.07421875 C-149.88745078 2461.84263649 -189.69852372 2485.16236721 -230.89453125 2505.9375 C-231.94205566 2506.46666016 -232.98958008 2506.99582031 -234.06884766 2507.54101562 C-314.36893252 2547.82273866 -401.64263475 2573.8797986 -559.01953125 2595.625 C-559.79403625 2595.68611969 -560.56854126 2595.74723938 -561.36651611 2595.81021118 C-583.52331049 2597.53026799 -605.6748521 2598.14654094 -627.89453125 2598.125 C-629.06229095 2598.12439575 -630.23005066 2598.1237915 -631.43319702 2598.12316895 C-717.20726796 2598.00381693 -803.01426188 2586.03570345 -927.92962646 2547.61590576 C-929.76307118 2546.98288809 -931.59756077 2546.35289898 -933.43212891 2545.72314453 C-960.56039396 2536.36647074 -986.82660706 2524.88795424 -1012.89453125 2512.9375 C-1013.82007813 2512.51339844 -1014.745625 2512.08929687 -1015.69921875 2511.65234375 C-1026.79507947 2506.54285166 -1037.65931595 2501.05387131 -1048.41699219 2495.26757812 C-1050.93851419 2493.91388756 -1053.46712236 2492.57408777 -1055.99609375 2491.234375 C-1070.7304345 2483.37169784 -1084.97760372 2474.76679151 -1099.18060303 2465.99462891 C-1100.85396147 2464.96252292 -1102.5297356 2463.93433674 -1104.20556641 2462.90625 C-1116.42648869 2455.40742811 -1128.41739486 2447.7217881 -1140.02001953 2439.29443359 C-1141.83299404 2437.98204595 -1143.65602959 2436.68539445 -1145.484375 2435.39453125 C-1167.18100781 2420.06321402 -1187.97796122 2403.60205059 -1208.19873047 2386.37890625 C-1209.89687971 2384.93550384 -1211.60043318 2383.49868577 -1213.3046875 2382.0625 C-1221.42048671 2375.19767111 -1229.23494079 2368.05800931 -1236.96044922 2360.75830078 C-1238.9107108 2358.9222681 -1240.87159514 2357.09829638 -1242.8359375 2355.27734375 C-1249.81950576 2348.79376172 -1256.70551357 2342.2254866 -1263.45703125 2335.5 C-1264.09954834 2334.8620752 -1264.74206543 2334.22415039 -1265.40405273 2333.56689453 C-1269.19488523 2329.76368502 -1272.79250224 2325.84436163 -1276.28295898 2321.76342773 C-1277.91930908 2319.90942647 -1279.629107 2318.16831829 -1281.39453125 2316.4375 C-1284.4304805 2313.44877663 -1287.23961784 2310.32043521 -1290.01953125 2307.09375 C-1292.06812219 2304.73787042 -1294.16656127 2302.4324254 -1296.26953125 2300.125 C-1300.16694572 2295.80624343 -1303.8675348 2291.35987949 -1307.5234375 2286.8359375 C-1309.59144336 2284.30799623 -1311.70117249 2281.82319003 -1313.83276367 2279.34887695 C-1319.52375371 2272.72775531 -1324.79899739 2265.8559873 -1329.9921875 2258.83984375 C-1332.57494792 2255.35103088 -1335.224236 2251.92225039 -1337.89453125 2248.5 C-1364.08201123 2214.60818518 -1386.57557004 2177.57298375 -1406.89453125 2139.9375 C-1407.72114258 2138.41406982 -1407.72114258 2138.41406982 -1408.56445312 2136.85986328 C-1448.19753093 2063.48157487 -1475.5273632 1982.06898692 -1500.89453125 1807.9375 C-1500.95808304 1806.95605011 -1500.95808304 1806.95605011 -1501.0229187 1805.95477295 C-1502.05801518 1789.7497139 -1502.09596876 1773.54505444 -1502.08203125 1757.3125 C-1502.08176437 1756.6153891 -1502.0814975 1755.9182782 -1502.08122253 1755.20004272 C-1502.07124353 1734.41422632 -1501.94323169 1713.70123531 -1500.078125 1692.98236084 C-1499.88131355 1690.79028174 -1499.69252907 1688.59758326 -1499.50390625 1686.40478516 C-1494.02204295 1623.56801287 -1481.37822722 1561.92087232 -1461.89453125 1501.9375 C-1461.68354797 1501.28734924 -1461.4725647 1500.63719849 -1461.25518799 1499.96734619 C-1449.26383313 1463.13951306 -1433.91129046 1427.70298306 -1416.89453125 1392.9375 C-1416.20641357 1391.52041748 -1416.20641357 1391.52041748 -1415.50439453 1390.07470703 C-1408.51789013 1375.70167872 -1400.92924259 1361.75011067 -1392.89453125 1347.9375 C-1392.34909668 1346.99165039 -1391.80366211 1346.04580078 -1391.24169922 1345.07128906 C-1376.04772593 1318.80404437 -1359.15884335 1293.17698334 -1340.89453125 1268.9375 C-1340.11408447 1267.89553467 -1340.11408447 1267.89553467 -1339.31787109 1266.83251953 C-1331.88647112 1256.93066315 -1324.19263982 1247.25896178 -1316.33447266 1237.69335938 C-1315.05087424 1236.12814408 -1313.77490053 1234.556683 -1312.5 1232.984375 C-1303.70294887 1222.14260388 -1294.6451317 1211.58634088 -1285.05395508 1201.43847656 C-1281.96747891 1198.17233504 -1278.94597759 1194.86581091 -1275.97265625 1191.49609375 C-1269.89233544 1184.71961188 -1263.42891462 1178.32235697 -1256.9831543 1171.89575195 C-1254.82940603 1169.74738134 -1252.68107899 1167.59369306 -1250.53320312 1165.43945312 C-1249.14224771 1164.04915832 -1247.75098222 1162.65917364 -1246.359375 1161.26953125 C-1245.72893784 1160.63706985 -1245.09850067 1160.00460846 -1244.44895935 1159.35298157 C-1240.657144 1155.58072792 -1236.75217581 1151.99267953 -1232.69833374 1148.50318909 C-1229.92467887 1146.0956743 -1227.26038976 1143.57478169 -1224.58203125 1141.0625 C-1219.8117632 1136.62409468 -1214.91606338 1132.42279903 -1209.83203125 1128.34375 C-1206.32561659 1125.47147416 -1202.92665182 1122.48862649 -1199.51953125 1119.5 C-1193.95695556 1114.64244113 -1188.2808702 1110.03164726 -1182.3828125 1105.5859375 C-1179.81031173 1103.64631217 -1177.27444522 1101.66583032 -1174.75 1099.6640625 C-1165.4616058 1092.31476672 -1155.96907803 1085.43464776 -1146.14453125 1078.8203125 C-1142.85370466 1076.60301775 -1139.63684991 1074.31242706 -1136.45703125 1071.9375 C-1082.82788973 1032.52132049 -1021.34573867 1002.86706271 -959.89453125 977.9375 C-958.84652344 977.50630859 -957.79851563 977.07511719 -956.71875 976.63085938 C-955.81769531 976.26283203 -954.91664063 975.89480469 -953.98828125 975.515625 C-953.23224609 975.2052832 -952.47621094 974.89494141 -951.69726562 974.57519531 C-949.89453125 973.9375 -949.89453125 973.9375 -947.89453125 973.9375 C-948.22453125 973.2775 -948.55453125 972.6175 -948.89453125 971.9375 C-949.11636218 970.41065642 -949.2885538 968.87645541 -949.43530273 967.34057617 C-949.575662 965.89825874 -949.575662 965.89825874 -949.71885681 964.42680359 C-949.81679031 963.37201309 -949.91472382 962.3172226 -950.015625 961.23046875 C-950.17285789 959.56846184 -950.17285789 959.56846184 -950.33326721 957.87287903 C-950.55640463 955.49805126 -950.77735556 953.12301724 -950.99633789 950.74780273 C-951.31951463 947.26007936 -951.65431429 943.77362474 -951.99023438 940.28710938 C-955.21810755 906.0932563 -956.27489681 872.02259913 -956.21238708 837.68645096 C-956.20694601 834.57627491 -956.20457947 831.46610647 -956.20251465 828.35592651 C-956.1724292 799.2756698 -955.85789345 770.32157451 -953.11914062 741.34814453 C-952.89221605 738.91265186 -952.68032573 736.47626767 -952.47265625 734.0390625 C-949.01484509 693.73064093 -943.13044903 653.54435681 -934.89453125 613.9375 C-934.74262329 613.20414429 -934.59071533 612.47078857 -934.4342041 611.71520996 C-918.35686639 534.3284977 -893.50451532 459.04220568 -858.89453125 387.9375 C-858.59202454 387.31399658 -858.28951782 386.69049316 -857.97784424 386.0480957 C-849.99094123 369.59327038 -841.61851577 353.43655925 -832.43554688 337.609375 C-830.90683386 334.95883076 -829.40463373 332.29497558 -827.91015625 329.625 C-815.7650095 307.97923045 -802.90652428 286.32088539 -785.89453125 268.09375 C-784.04224366 266.09675244 -782.31525657 264.03736914 -780.58203125 261.9375 C-768.12375598 247.73220222 -749.83349289 235.55073444 -730.76171875 233.734375 C-718.01496793 233.43445145 -706.80981242 238.04120876 -697.1640625 246.265625 C-691.58554545 251.63315426 -686.97244932 257.36952577 -682.89453125 263.9375 C-682.20875 265.0409375 -681.52296875 266.144375 -680.81640625 267.28125 C-636.87021797 340.51193365 -633.52981485 444.28178738 -626.58459473 562.91394043 C-625.26820272 659.82033551 -625.26820272 659.82033551 -584.89453125 743.9375 C-577.08771919 750.42541377 -567.65910233 754.59754855 -557.3671875 753.72265625 C-540.94693261 751.2490167 -527.96063678 742.11779441 -516.11328125 730.98046875 C-513.89453125 728.9375 -513.89453125 728.9375 -511.3046875 726.88671875 C-509.2224127 725.20267479 -507.55628847 723.59482451 -505.83203125 721.5625 C-503.65264626 719.00184031 -501.46862341 716.4503389 -499.234375 713.9375 C-441.08299009 648.06387705 -405.97182192 560.6867004 -371.82666016 480.80224609 C-364.25916105 463.09919582 -356.61268007 445.43278942 -348.89329529 427.79551697 C-346.50228622 422.33168865 -344.12019806 416.86402827 -341.7421875 411.39453125 C-321.74902936 365.41778605 -301.50112379 319.55042634 -280.35888672 274.08837891 C-278.77447824 270.67917988 -277.19594209 267.2672894 -275.6171875 263.85546875 C-256.97514837 223.62301859 -238.12505603 183.09256507 -216.31933594 144.47070312 C-214.71578153 141.61969549 -213.13668616 138.75580132 -211.55859375 135.890625 C-192.3164498 101.0637357 -171.37812982 65.71070572 -144.171875 36.3984375 C-142.13550971 34.19790554 -140.16191272 31.96021297 -138.20703125 29.6875 C-131.73172919 22.28071597 -124.65282176 15.99154278 -116.89453125 9.9375 C-116.38035645 9.53096191 -115.86618164 9.12442383 -115.33642578 8.70556641 C-101.5580841 -2.08500624 -86.06327426 -9.54070656 -68.89453125 -13.0625 C-67.54681641 -13.34673828 -67.54681641 -13.34673828 -66.171875 -13.63671875 C-43.14058826 -16.62886447 -19.18102664 -13.66745218 0 0 Z M-719.45703125 920.6875 C-720.26972473 920.77086609 -721.08241821 920.85423218 -721.91973877 920.94012451 C-785.49735661 927.52005186 -848.25371377 940.70658504 -908.89453125 960.9375 C-909.63239868 961.18322754 -910.37026611 961.42895508 -911.13049316 961.68212891 C-916.32889468 963.41576557 -921.52041344 965.16893662 -926.70703125 966.9375 C-927.38865326 967.16928955 -928.07027527 967.4010791 -928.77255249 967.63989258 C-930.69649424 968.29642577 -932.61783735 968.96055918 -934.5390625 969.625 C-935.62550049 970.00011719 -936.71193848 970.37523437 -937.83129883 970.76171875 C-940.96985428 971.96641175 -943.9143818 973.38550771 -946.89453125 974.9375 C-945.65291389 988.7109409 -943.93429884 1002.34230625 -941.76953125 1016 C-941.61835846 1016.96082489 -941.46718567 1017.92164978 -941.31143188 1018.91159058 C-930.34570628 1088.40197642 -914.03941023 1156.83215726 -892.89453125 1223.9375 C-891.82203125 1223.54820312 -890.74953125 1223.15890625 -889.64453125 1222.7578125 C-834.36920036 1202.92500442 -777.57187378 1189.9114038 -718.89453125 1185.9375 C-718.0535791 1185.87965332 -717.21262695 1185.82180664 -716.34619141 1185.76220703 C-630.31019742 1180.15731046 -542.29691139 1193.87240044 -384.89453125 1263.9375 C-384.09273437 1264.4113916 -383.2909375 1264.8852832 -382.46484375 1265.37353516 C-355.26535436 1281.52040812 -329.55706492 1299.91596441 -305.55957031 1320.51513672 C-303.83301602 1321.99004952 -302.09538578 1323.45103959 -300.35546875 1324.91015625 C-293.70862877 1330.50797114 -287.41330367 1336.27707254 -281.33984375 1342.4921875 C-279.25958188 1344.57244937 -277.14692571 1346.48736578 -274.89453125 1348.375 C-270.54778312 1352.09701307 -266.77994785 1356.31279392 -262.95703125 1360.55859375 C-260.21155556 1363.60581955 -257.40467719 1366.59103963 -254.58789062 1369.57226562 C-248.38971287 1376.1432661 -242.50924711 1382.85596391 -236.89453125 1389.9375 C-235.97660674 1391.06489959 -235.05725155 1392.19113534 -234.13671875 1393.31640625 C-208.76972823 1424.45472266 -187.36877408 1458.82252617 -169.86425781 1494.94482422 C-168.85294803 1497.0229487 -167.82296092 1499.0912359 -166.79296875 1501.16015625 C-136.62308956 1562.48225235 -118.96243273 1634.55458356 -118.69140625 1703.015625 C-118.68439194 1704.21364243 -118.67737762 1705.41165985 -118.67015076 1706.64598083 C-118.65274805 1710.49319265 -118.64629779 1714.34025026 -118.64453125 1718.1875 C-118.64351913 1720.16419174 -118.64351913 1720.16419174 -118.64248657 1722.18081665 C-118.65008051 1742.60720293 -119.18765203 1762.67779178 -121.89453125 1782.9375 C-121.98174438 1783.59699646 -122.06895752 1784.25649292 -122.15881348 1784.93597412 C-132.85754082 1865.30133579 -161.23904556 1942.88173467 -207.1484375 2009.875 C-210.52598221 2014.81267887 -213.70381149 2019.87792178 -216.89453125 2024.9375 C-144.97229648 2060.31843802 -69.2504392 2088.36534664 127.69921875 2138.92578125 C128.63934311 2139.11673874 129.57946747 2139.30769623 130.54808044 2139.50444031 C135.72316269 2140.53444574 140.86108551 2141.35152044 146.10546875 2141.9375 C165.23056123 2104.46004387 165.23056123 2104.46004387 182.10546875 2065.9375 C182.39212402 2065.2279718 182.6787793 2064.5184436 182.97412109 2063.78741455 C215.28300068 1983.72484774 235.11840232 1899.81915827 242.10546875 1803.9375 C242.14783661 1803.1780307 242.19020447 1802.4185614 242.2338562 1801.63607788 C243.03601525 1786.87967503 243.3080763 1772.15186608 243.29296875 1757.375 C243.2923645 1756.26910522 243.29176025 1755.16321045 243.2911377 1754.02380371 C243.1691531 1671.06535129 230.53162556 1588.09348326 202.76824951 1502.94085693 C202.12311649 1500.990843 201.48155231 1499.03968233 200.84033203 1497.08837891 C176.7183394 1424.09088514 141.42070523 1353.77865871 97.10546875 1290.9375 C96.70440918 1290.36692871 96.30334961 1289.79635742 95.89013672 1289.20849609 C92.99357227 1285.09506681 90.05769159 1281.01111774 87.10546875 1276.9375 C86.31849609 1275.84864502 86.31849609 1275.84864502 85.515625 1274.73779297 C77.80952481 1264.09741271 69.85034266 1253.74081613 61.48193359 1243.61376953 C59.63935813 1241.36986688 57.84085194 1239.09229002 56.04296875 1236.8125 C48.72831207 1227.6460315 40.97902517 1218.82525609 33.09765625 1210.14453125 C31.34353494 1208.20123999 29.62574181 1206.23390552 27.91796875 1204.25 C17.83306993 1192.70827492 7.09509171 1181.76234641 -3.75585938 1170.94580078 C-5.79285546 1168.914238 -7.82435076 1166.87728164 -9.85546875 1164.83984375 C-11.17806442 1163.51790793 -12.50096974 1162.19628183 -13.82421875 1160.875 C-14.71353592 1159.98264648 -14.71353592 1159.98264648 -15.62081909 1159.07226562 C-19.31417885 1155.39915817 -23.13050437 1151.91707627 -27.07685852 1148.51705933 C-29.85405415 1146.10367369 -32.52389275 1143.57923903 -35.20703125 1141.0625 C-40.00102265 1136.60245644 -44.91964121 1132.37440447 -50.02734375 1128.2734375 C-53.31032822 1125.59874443 -56.50692829 1122.83515875 -59.70703125 1120.0625 C-66.59806078 1114.12279513 -73.68746734 1108.48705907 -80.89453125 1102.9375 C-82.05299561 1102.0400708 -82.05299561 1102.0400708 -83.23486328 1101.12451172 C-157.36317338 1043.7418374 -240.71701597 998.56925058 -394.89453125 946.9375 C-395.61282104 946.74540955 -396.33111084 946.55331909 -397.07116699 946.35540771 C-454.21269114 931.10396952 -512.85164001 921.52973972 -571.89453125 917.9375 C-573.18987793 917.84992432 -574.48522461 917.76234863 -575.81982422 917.67211914 C-591.58206778 916.68742943 -607.3657896 916.75011215 -623.15185547 916.75219727 C-626.37196548 916.75227789 -629.59193128 916.74542307 -632.81201172 916.73168945 C-661.79527052 916.61020795 -690.61303743 917.68423607 -719.45703125 920.6875 Z M-900.33984375 1227.703125 C-901.23912598 1228.09234131 -902.1384082 1228.48155762 -903.06494141 1228.88256836 C-904.03995605 1229.3131958 -905.0149707 1229.74382324 -906.01953125 1230.1875 C-907.03708496 1230.63424072 -908.05463867 1231.08098145 -909.10302734 1231.54125977 C-942.46312329 1246.31108695 -974.90094938 1263.0741514 -1004.89453125 1283.9375 C-1005.91401855 1284.64253662 -1005.91401855 1284.64253662 -1006.95410156 1285.36181641 C-1037.17027501 1306.29798886 -1064.98016426 1330.01830149 -1091.01953125 1355.9375 C-1092.04880737 1356.95976685 -1092.04880737 1356.95976685 -1093.09887695 1358.00268555 C-1096.99861361 1361.91485545 -1100.70964302 1365.937876 -1104.31787109 1370.12011719 C-1106.37111373 1372.48684655 -1108.50785626 1374.77110027 -1110.64453125 1377.0625 C-1115.39207642 1382.26902235 -1119.74479567 1387.71142239 -1124.05078125 1393.28515625 C-1125.93281508 1395.71893274 -1127.84750647 1398.11913069 -1129.80078125 1400.49609375 C-1137.22019076 1409.54355611 -1143.89909825 1418.97206041 -1150.39550781 1428.70068359 C-1151.7437241 1430.71246822 -1153.10759951 1432.7120304 -1154.48046875 1434.70703125 C-1167.58453988 1453.85064419 -1178.49798318 1474.22742297 -1188.89453125 1494.9375 C-1189.35988281 1495.85885742 -1189.82523438 1496.78021484 -1190.3046875 1497.72949219 C-1229.17585565 1575.1527368 -1245.34406286 1664.62212496 -1216.07627869 1877.85145569 C-1210.17168048 1895.56722762 -1203.67042759 1912.94816975 -1195.89453125 1929.9375 C-1195.18562744 1931.48751709 -1195.18562744 1931.48751709 -1194.46240234 1933.06884766 C-1174.13019118 1977.13441782 -1148.22025443 2017.87825321 -1116.89453125 2054.9375 C-1116.34458496 2055.59186035 -1115.79463867 2056.2462207 -1115.22802734 2056.92041016 C-1107.71158373 2065.87085123 -1107.71158373 2065.87085123 -1099.57666016 2074.25463867 C-1097.86307485 2075.9689701 -1096.29556637 2077.75385605 -1094.72265625 2079.59765625 C-1090.81721977 2084.08862546 -1086.67545263 2088.30436037 -1082.45703125 2092.5 C-1081.74482422 2093.21607422 -1081.03261719 2093.93214844 -1080.29882812 2094.66992188 C-1076.22883815 2098.73251859 -1072.06124267 2102.61775636 -1067.70532227 2106.37182617 C-1065.28242048 2108.46675257 -1062.93462135 2110.6391897 -1060.58203125 2112.8125 C-1055.17959809 2117.73257305 -1049.60538368 2122.38105013 -1043.89453125 2126.9375 C-1043.13197021 2127.54948242 -1043.13197021 2127.54948242 -1042.35400391 2128.17382812 C-966.75539557 2188.76371918 -877.56045928 2228.84166709 -614.96899414 2251.62084961 C-534.55508407 2242.53152795 -455.53254941 2217.47192377 -385.89453125 2175.9375 C-385.01684082 2175.41478516 -384.13915039 2174.89207031 -383.23486328 2174.35351562 C-357.83101449 2159.12525456 -333.51195046 2142.08055662 -310.89453125 2122.9375 C-310.3634375 2122.48987305 -309.83234375 2122.04224609 -309.28515625 2121.58105469 C-307.50555447 2120.07901467 -305.73043994 2118.57184579 -303.95703125 2117.0625 C-303.43181885 2116.61680664 -302.90660645 2116.17111328 -302.36547852 2115.71191406 C-291.53738204 2106.42929263 -281.31865251 2096.54814179 -271.23901367 2086.46728516 C-269.20445483 2084.43492636 -267.16198938 2082.41074053 -265.11914062 2080.38671875 C-258.63152672 2073.9262748 -252.3904521 2067.46728262 -246.73999023 2060.25048828 C-244.80902906 2057.83033666 -242.76015969 2055.57195853 -240.64453125 2053.3125 C-236.52751429 2048.79612514 -232.78987446 2044.0396496 -229.08203125 2039.1875 C-228.53063477 2038.4661084 -227.97923828 2037.7447168 -227.41113281 2037.00146484 C-224.42883468 2033.06362891 -221.58482397 2029.0804205 -218.89453125 2024.9375 C-221.41432313 2023.6021708 -223.93518132 2022.26893552 -226.45703125 2020.9375 C-227.2862207 2020.49962158 -228.11541016 2020.06174316 -228.96972656 2019.6105957 C-234.3795714 2016.76272235 -239.8064617 2013.95069653 -245.25 2011.16796875 C-261.01086945 2003.10584734 -276.57613345 1994.82098593 -291.89453125 1985.9375 C-293.63608757 1984.9357703 -295.37764764 1983.93404709 -297.11932373 1982.93252563 C-312.00776359 1974.36003996 -326.61311473 1965.47616634 -340.90478516 1955.93115234 C-343.57791705 1954.14862784 -346.2575755 1952.376391 -348.94041443 1950.60852051 C-361.75319318 1942.16372688 -374.42923614 1933.57719283 -386.78955078 1924.47753906 C-388.96855995 1922.88333936 -391.16150055 1921.31026167 -393.359375 1919.7421875 C-403.37576403 1912.58947362 -413.15642628 1905.18143156 -422.82519531 1897.56591797 C-424.73761952 1896.06097821 -426.65472533 1894.56231261 -428.57421875 1893.06640625 C-440.34207234 1883.88375196 -451.95169763 1874.50508043 -463.31054688 1864.8203125 C-466.65245213 1861.97365846 -470.03870849 1859.19169148 -473.45703125 1856.4375 C-478.53060618 1852.31059794 -483.33194267 1847.93647442 -488.125 1843.4921875 C-490.35371518 1841.43636278 -492.60221044 1839.42133043 -494.89453125 1837.4375 C-499.78977812 1833.1895585 -504.54085099 1828.78460612 -509.30810547 1824.39453125 C-510.8966364 1822.93556655 -512.49039621 1821.48254223 -514.0859375 1820.03125 C-518.87576232 1815.66983188 -523.61100816 1811.2866545 -528.14393616 1806.65565491 C-529.91220372 1804.92015502 -531.744835 1803.30815799 -533.62670898 1801.69702148 C-537.72494784 1798.13041246 -541.59527979 1794.3817543 -545.4296875 1790.53515625 C-546.11203964 1789.85376083 -546.79439178 1789.17236542 -547.49742126 1788.47032166 C-548.92797562 1787.04044259 -550.35728892 1785.60932089 -551.78540039 1784.17700195 C-553.95152199 1782.00552289 -556.12293299 1779.83943675 -558.29492188 1777.67382812 C-559.69433112 1776.27375798 -561.09343009 1774.87337762 -562.4921875 1773.47265625 C-563.130923 1772.83594498 -563.76965851 1772.1992337 -564.42774963 1771.54322815 C-568.240588 1767.71082539 -571.86511856 1763.76412971 -575.38853455 1759.66368103 C-577.29202787 1757.48188737 -579.31691596 1755.45309693 -581.39453125 1753.4375 C-584.70060472 1750.17025625 -587.80198586 1746.81734369 -590.82421875 1743.2890625 C-593.02158414 1740.79318709 -595.28400041 1738.36944129 -597.56005859 1735.94555664 C-602.82207604 1730.34160576 -607.84517076 1724.65300157 -612.65234375 1718.6484375 C-615.13361879 1715.648429 -617.74358582 1712.78636566 -620.39453125 1709.9375 C-624.57087003 1705.4383039 -628.53970454 1700.81999058 -632.390625 1696.0390625 C-634.8874686 1692.94624844 -637.4164487 1689.88241771 -639.9519043 1686.82128906 C-646.22558107 1679.24063141 -652.39239365 1671.58942317 -658.43017578 1663.81982422 C-660.038018 1661.75305804 -661.65164637 1659.69088346 -663.265625 1657.62890625 C-675.49517429 1641.98473318 -687.36120846 1626.10191124 -698.89453125 1609.9375 C-699.4167627 1609.20708496 -699.93899414 1608.47666992 -700.47705078 1607.72412109 C-740.77339136 1551.21445871 -776.34287631 1491.65875936 -807.90435791 1429.87493896 C-808.58064262 1428.55167535 -809.25772087 1427.22881708 -809.93548584 1425.90631104 C-820.70576579 1404.890399 -830.8224884 1383.67969836 -840.23936462 1362.02268982 C-842.06684654 1357.82067284 -843.92150654 1353.63275568 -845.80859375 1349.45703125 C-859.09833844 1319.96988195 -870.31854742 1289.61954156 -881.11151123 1259.14654541 C-882.18509692 1256.11776009 -883.26282685 1253.09045519 -884.34042358 1250.06309509 C-887.20156547 1242.02467714 -890.05246387 1233.98268376 -892.89453125 1225.9375 C-896.03699352 1225.9375 -897.49726808 1226.46853544 -900.33984375 1227.703125 Z " fill="#FFFFFF" transform="translate(1915.89453125,309.0625)"/>
</svg>
